<?xml version="1.0" standalone="no"?>
<!DOCTYPE svg PUBLIC "-//W3C//DTD SVG 20010904//EN"
 "http://www.w3.org/TR/2001/REC-SVG-20010904/DTD/svg10.dtd">
<svg version="1.0" xmlns="http://www.w3.org/2000/svg"
 width="146.000000pt" height="25.000000pt" viewBox="0 0 146.000000 25.000000"
 preserveAspectRatio="xMidYMid meet">

<g transform="translate(0.000000,25.000000) scale(0.100000,-0.100000)"
fill="#000000" stroke="none">
<path d="M0 125 l0 -125 130 0 130 0 0 125 0 125 -130 0 -130 0 0 -125z m100
21 c0 -81 48 -83 57 -2 8 67 33 63 33 -6 0 -58 -19 -88 -57 -88 -43 0 -61 17
-69 65 -7 52 -1 75 21 75 11 0 15 -11 15 -44z"/>
<path d="M320 125 l0 -125 570 0 570 0 0 125 0 125 -570 0 -570 0 0 -125z"/>
</g>
</svg>
